<?xml version="1.0" encoding="UTF-8" standalone="no"?>
<!DOCTYPE svg PUBLIC "-//W3C//DTD SVG 1.0//EN" "http://www.w3.org/TR/2001/PR-SVG-20010719/DTD/svg10.dtd">
<svg width="21cm" height="16cm" viewBox="136 55 415 310" xmlns="http://www.w3.org/2000/svg" xmlns:xlink="http://www.w3.org/1999/xlink">
  <ellipse style="fill: #000000" cx="147.5" cy="116.507" rx="10" ry="10"/>
  <g>
    <rect style="fill: #d8e5e5" x="193.74" y="97.575" width="80" height="38.3444" rx="10" ry="10"/>
    <rect style="fill: none; fill-opacity:0; stroke-width: 2; stroke: #000000" x="193.74" y="97.575" width="80" height="38.3444" rx="10" ry="10"/>
    <text font-size="7.33778" style="fill: #000000;text-anchor:middle;font-family:sans-serif;font-style:normal;font-weight:normal" x="233.74" y="114.925">
      <tspan x="233.74" y="114.925"></tspan>
    </text>
    <text font-size="7.33778" style="fill: #000000;text-anchor:start;font-family:sans-serif;font-style:normal;font-weight:normal" x="203.74" y="124.097">do/ Reset Signals</text>
    <line style="fill: none; fill-opacity:0; stroke-width: 2; stroke: #000000" x1="193.74" y1="116.747" x2="273.74" y2="116.747"/>
  </g>
  <g>
    <polyline style="fill: none; fill-opacity:0; stroke-width: 2; stroke: #000000" points="157.5,116.507 170.729,116.507 170.729,116.747 189.268,116.747 "/>
    <polyline style="fill: none; fill-opacity:0; stroke-width: 2; stroke: #000000" points="181.504,121.747 191.504,116.747 181.504,111.747 "/>
  </g>
  <text font-size="7.33778" style="fill: #000000;text-anchor:middle;font-family:sans-serif;font-style:normal;font-weight:normal" x="233.74" y="104.925">
    <tspan x="233.74" y="104.925">S0</tspan>
  </text>
  <g>
    <rect style="fill: #d8e5e5" x="352.24" y="120.575" width="80" height="29.1722" rx="10" ry="10"/>
    <rect style="fill: none; fill-opacity:0; stroke-width: 2; stroke: #000000" x="352.24" y="120.575" width="80" height="29.1722" rx="10" ry="10"/>
    <text font-size="7.33778" style="fill: #000000;text-anchor:middle;font-family:sans-serif;font-style:normal;font-weight:normal" x="392.24" y="137.925">
      <tspan x="392.24" y="137.925"></tspan>
    </text>
  </g>
  <text font-size="7.33778" style="fill: #000000;text-anchor:middle;font-family:sans-serif;font-style:normal;font-weight:normal" x="392.24" y="127.925">
    <tspan x="392.24" y="127.925">WAIT_MSG</tspan>
  </text>
  <g>
    <rect style="fill: #d8e5e5" x="460" y="276.5" width="80" height="29.1722" rx="10" ry="10"/>
    <rect style="fill: none; fill-opacity:0; stroke-width: 2; stroke: #000000" x="460" y="276.5" width="80" height="29.1722" rx="10" ry="10"/>
    <text font-size="7.33778" style="fill: #000000;text-anchor:middle;font-family:sans-serif;font-style:normal;font-weight:normal" x="500" y="293.85">
      <tspan x="500" y="293.85"></tspan>
    </text>
  </g>
  <text font-size="7.33778" style="fill: #000000;text-anchor:middle;font-family:sans-serif;font-style:normal;font-weight:normal" x="500" y="283.85">
    <tspan x="500" y="283.85">SEND_TX</tspan>
  </text>
  <g>
    <rect style="fill: #d8e5e5" x="230" y="270" width="89" height="38.3444" rx="10" ry="10"/>
    <rect style="fill: none; fill-opacity:0; stroke-width: 2; stroke: #000000" x="230" y="270" width="89" height="38.3444" rx="10" ry="10"/>
    <text font-size="7.33778" style="fill: #000000;text-anchor:middle;font-family:sans-serif;font-style:normal;font-weight:normal" x="274.5" y="287.35">
      <tspan x="274.5" y="287.35"></tspan>
    </text>
    <text font-size="7.33778" style="fill: #000000;text-anchor:start;font-family:sans-serif;font-style:normal;font-weight:normal" x="240" y="296.522">do/ pointerBufTail++</text>
    <line style="fill: none; fill-opacity:0; stroke-width: 2; stroke: #000000" x1="230" y1="289.172" x2="319" y2="289.172"/>
  </g>
  <text font-size="7.33778" style="fill: #000000;text-anchor:middle;font-family:sans-serif;font-style:normal;font-weight:normal" x="274.5" y="277.35">
    <tspan x="274.5" y="277.35">INC_HEAD</tspan>
  </text>
  <g>
    <path style="fill: none; fill-opacity:0; stroke-width: 2; stroke: #000000" d="M 356.166,117.897 A 73.1496,73.1496 0 0 0 273.74,116.747"/>
    <polyline style="fill: none; fill-opacity:0; stroke-width: 2; stroke: #000000" points="347.058,116.85 357.992,119.18 353.295,109.034 "/>
  </g>
  <g>
    <path style="fill: none; fill-opacity:0; stroke-width: 2; stroke: #000000" d="M 500.45,272.052 A 146.834,146.834 0 0 0 432.24,135.161"/>
    <polyline style="fill: none; fill-opacity:0; stroke-width: 2; stroke: #000000" points="496.449,263.768 500.259,274.279 506.382,264.925 "/>
  </g>
  <g>
    <path style="fill: none; fill-opacity:0; stroke-width: 2; stroke: #000000" d="M 432.24,120.575 A 29,29 0 1 0 389.273,117.281"/>
    <polyline style="fill: none; fill-opacity:0; stroke-width: 2; stroke: #000000" points="379.931,115.757 390.621,119.033 386.828,108.516 "/>
  </g>
  <g>
    <path style="fill: none; fill-opacity:0; stroke-width: 2; stroke: #000000" d="M 323.349,290.214 A 311.074,311.074 0 0 0 460,291.086"/>
    <polyline style="fill: none; fill-opacity:0; stroke-width: 2; stroke: #000000" points="332.078,287.253 321.171,289.709 329.68,296.961 "/>
  </g>
  <g>
    <path style="fill: none; fill-opacity:0; stroke-width: 2; stroke: #000000" d="M 355.513,136.615 A 115.938,115.938 0 0 0 282,270"/>
    <polyline style="fill: none; fill-opacity:0; stroke-width: 2; stroke: #000000" points="349.629,143.675 357.612,135.847 346.56,134.158 "/>
  </g>
  <text font-size="7.9021" style="fill: #000000;text-anchor:middle;font-family:sans-serif;font-style:normal;font-weight:normal" x="403.74" y="63.7">
    <tspan x="403.74" y="63.7">waiting for message</tspan>
  </text>
  <text font-size="7.9021" style="fill: #000000;text-anchor:middle;font-family:sans-serif;font-style:normal;font-weight:normal" x="510" y="168.067">
    <tspan x="510" y="168.067">(arrived message) AND</tspan>
    <tspan x="510" y="177.945">(buffer not full)</tspan>
  </text>
  <text font-size="12.7998" style="fill: #000000;text-anchor:start;font-family:sans-serif;font-style:normal;font-weight:normal" x="273.74" y="270.575">
    <tspan x="273.74" y="270.575"></tspan>
  </text>
  <g>
    <path style="fill: none; fill-opacity:0; stroke-width: 2; stroke: #000000" d="M 460,305.672 A 25.3125,25.3125 0 1 0 502.394,309.389"/>
    <polyline style="fill: none; fill-opacity:0; stroke-width: 2; stroke: #000000" points="511.451,312.275 501.371,307.439 503.549,318.405 "/>
  </g>
  <text font-size="7.9021" style="fill: #000000;text-anchor:middle;font-family:sans-serif;font-style:normal;font-weight:normal" x="480" y="363.006">
    <tspan x="480" y="363.006">waiting ACK_TX</tspan>
  </text>
  <text font-size="7.9021" style="fill: #000000;text-anchor:middle;font-family:sans-serif;font-style:normal;font-weight:normal" x="390" y="283.125">
    <tspan x="390" y="283.125">message sent</tspan>
  </text>
</svg>
