<?xml version="1.0" encoding="UTF-8" standalone="no"?>
<!DOCTYPE svg PUBLIC "-//W3C//DTD SVG 1.0//EN" "http://www.w3.org/TR/2001/PR-SVG-20010719/DTD/svg10.dtd">
<svg width="37cm" height="17cm" viewBox="45 7 722 339" xmlns="http://www.w3.org/2000/svg" xmlns:xlink="http://www.w3.org/1999/xlink">
  <ellipse style="fill: #000000" cx="56.771" cy="50.5382" rx="10" ry="10"/>
  <g>
    <rect style="fill: #ffffff" x="102.417" y="31.0114" width="80" height="38.3444" rx="10" ry="10"/>
    <rect style="fill: none; fill-opacity:0; stroke-width: 2; stroke: #000000" x="102.417" y="31.0114" width="80" height="38.3444" rx="10" ry="10"/>
    <text font-size="7.33778" style="fill: #000000;text-anchor:middle;font-family:sans-serif;font-style:normal;font-weight:normal" x="142.417" y="48.3614">
      <tspan x="142.417" y="48.3614"></tspan>
    </text>
    <text font-size="7.33778" style="fill: #000000;text-anchor:start;font-family:sans-serif;font-style:normal;font-weight:normal" x="112.417" y="57.5336">do/ Reset Signals</text>
    <line style="fill: none; fill-opacity:0; stroke-width: 2; stroke: #000000" x1="102.417" y1="50.1836" x2="182.417" y2="50.1836"/>
  </g>
  <text font-size="7.33778" style="fill: #000000;text-anchor:middle;font-family:sans-serif;font-style:normal;font-weight:normal" x="142.417" y="38.3614">
    <tspan x="142.417" y="38.3614">S0</tspan>
  </text>
  <text font-size="7.33778" style="fill: #000000;text-anchor:middle;font-family:sans-serif;font-style:normal;font-weight:normal" x="492.82" y="371.792">
    <tspan x="492.82" y="371.792"></tspan>
  </text>
  <g>
    <rect style="fill: #ffffff" x="400" y="65.404" width="86.5" height="38.3444" rx="10" ry="10"/>
    <rect style="fill: none; fill-opacity:0; stroke-width: 2; stroke: #000000" x="400" y="65.404" width="86.5" height="38.3444" rx="10" ry="10"/>
    <text font-size="7.33778" style="fill: #000000;text-anchor:middle;font-family:sans-serif;font-style:normal;font-weight:normal" x="443.25" y="82.754">
      <tspan x="443.25" y="82.754"></tspan>
    </text>
    <text font-size="7.33778" style="fill: #000000;text-anchor:start;font-family:sans-serif;font-style:normal;font-weight:normal" x="410" y="91.9262">do/ read paramaters</text>
    <line style="fill: none; fill-opacity:0; stroke-width: 2; stroke: #000000" x1="400" y1="84.5762" x2="486.5" y2="84.5762"/>
  </g>
  <text font-size="7.33778" style="fill: #000000;text-anchor:middle;font-family:sans-serif;font-style:normal;font-weight:normal" x="443.25" y="72.754">
    <tspan x="443.25" y="72.754">GET_TS</tspan>
  </text>
  <g>
    <rect style="fill: #ffffff" x="559.596" y="65.4096" width="98.45" height="38.3444" rx="10" ry="10"/>
    <rect style="fill: none; fill-opacity:0; stroke-width: 2; stroke: #000000" x="559.596" y="65.4096" width="98.45" height="38.3444" rx="10" ry="10"/>
    <text font-size="7.33778" style="fill: #000000;text-anchor:middle;font-family:sans-serif;font-style:normal;font-weight:normal" x="608.821" y="82.7596">
      <tspan x="608.821" y="82.7596"></tspan>
    </text>
    <text font-size="7.33778" style="fill: #000000;text-anchor:start;font-family:sans-serif;font-style:normal;font-weight:normal" x="569.596" y="91.9318">do/ inc memory address</text>
    <line style="fill: none; fill-opacity:0; stroke-width: 2; stroke: #000000" x1="559.596" y1="84.5818" x2="658.046" y2="84.5818"/>
  </g>
  <text font-size="7.33778" style="fill: #000000;text-anchor:middle;font-family:sans-serif;font-style:normal;font-weight:normal" x="608.822" y="72.7596">
    <tspan x="608.822" y="72.7596">GET_TS_INC</tspan>
  </text>
  <g>
    <rect style="fill: #ffffff" x="568.952" y="150" width="80" height="29.1722" rx="10" ry="10"/>
    <rect style="fill: none; fill-opacity:0; stroke-width: 2; stroke: #000000" x="568.952" y="150" width="80" height="29.1722" rx="10" ry="10"/>
    <text font-size="7.33778" style="fill: #000000;text-anchor:middle;font-family:sans-serif;font-style:normal;font-weight:normal" x="608.952" y="167.35">
      <tspan x="608.952" y="167.35"></tspan>
    </text>
  </g>
  <text font-size="7.33778" style="fill: #000000;text-anchor:middle;font-family:sans-serif;font-style:normal;font-weight:normal" x="608.952" y="157.35">
    <tspan x="608.952" y="157.35">PROCESSING_TS</tspan>
  </text>
  <g>
    <rect style="fill: #ffffff" x="568.952" y="311.038" width="80" height="29.1722" rx="10" ry="10"/>
    <rect style="fill: none; fill-opacity:0; stroke-width: 2; stroke: #000000" x="568.952" y="311.038" width="80" height="29.1722" rx="10" ry="10"/>
    <text font-size="7.33778" style="fill: #000000;text-anchor:middle;font-family:sans-serif;font-style:normal;font-weight:normal" x="608.952" y="328.388">
      <tspan x="608.952" y="328.388"></tspan>
    </text>
  </g>
  <text font-size="7.33778" style="fill: #000000;text-anchor:middle;font-family:sans-serif;font-style:normal;font-weight:normal" x="608.952" y="318.388">
    <tspan x="608.952" y="318.388">POWER_COEFF1</tspan>
  </text>
  <g>
    <rect style="fill: #ffffff" x="568.952" y="232.016" width="80" height="29.1722" rx="10" ry="10"/>
    <rect style="fill: none; fill-opacity:0; stroke-width: 2; stroke: #000000" x="568.952" y="232.016" width="80" height="29.1722" rx="10" ry="10"/>
    <text font-size="7.33778" style="fill: #000000;text-anchor:middle;font-family:sans-serif;font-style:normal;font-weight:normal" x="608.952" y="249.366">
      <tspan x="608.952" y="249.366"></tspan>
    </text>
  </g>
  <text font-size="7.33778" style="fill: #000000;text-anchor:middle;font-family:sans-serif;font-style:normal;font-weight:normal" x="608.952" y="239.366">
    <tspan x="608.952" y="239.366">GOERTZEL_CALC</tspan>
  </text>
  <g>
    <rect style="fill: #ffffff" x="420.18" y="311.038" width="80" height="29.1722" rx="10" ry="10"/>
    <rect style="fill: none; fill-opacity:0; stroke-width: 2; stroke: #000000" x="420.18" y="311.038" width="80" height="29.1722" rx="10" ry="10"/>
    <text font-size="7.33778" style="fill: #000000;text-anchor:middle;font-family:sans-serif;font-style:normal;font-weight:normal" x="460.18" y="328.388">
      <tspan x="460.18" y="328.388"></tspan>
    </text>
  </g>
  <text font-size="7.33778" style="fill: #000000;text-anchor:middle;font-family:sans-serif;font-style:normal;font-weight:normal" x="460.18" y="318.388">
    <tspan x="460.18" y="318.388">POWER_COEFF2</tspan>
  </text>
  <g>
    <rect style="fill: #ffffff" x="400" y="150" width="80" height="29.1722" rx="10" ry="10"/>
    <rect style="fill: none; fill-opacity:0; stroke-width: 2; stroke: #000000" x="400" y="150" width="80" height="29.1722" rx="10" ry="10"/>
    <text font-size="7.33778" style="fill: #000000;text-anchor:middle;font-family:sans-serif;font-style:normal;font-weight:normal" x="440" y="167.35">
      <tspan x="440" y="167.35"></tspan>
    </text>
  </g>
  <text font-size="7.33778" style="fill: #000000;text-anchor:middle;font-family:sans-serif;font-style:normal;font-weight:normal" x="440" y="157.35">
    <tspan x="440" y="157.35">SEND_MSG</tspan>
  </text>
  <g>
    <rect style="fill: #ffffff" x="209.786" y="306.448" width="136.75" height="38.3444" rx="10" ry="10"/>
    <rect style="fill: none; fill-opacity:0; stroke-width: 2; stroke: #000000" x="209.786" y="306.448" width="136.75" height="38.3444" rx="10" ry="10"/>
    <text font-size="7.33778" style="fill: #000000;text-anchor:middle;font-family:sans-serif;font-style:normal;font-weight:normal" x="278.161" y="323.798">
      <tspan x="278.161" y="323.798"></tspan>
    </text>
    <text font-size="7.33778" style="fill: #000000;text-anchor:start;font-family:sans-serif;font-style:normal;font-weight:normal" x="219.786" y="332.97">do/ update counters and DT_STATE</text>
    <line style="fill: none; fill-opacity:0; stroke-width: 2; stroke: #000000" x1="209.786" y1="325.62" x2="346.536" y2="325.62"/>
  </g>
  <text font-size="7.33778" style="fill: #000000;text-anchor:middle;font-family:sans-serif;font-style:normal;font-weight:normal" x="278.16" y="313.798">
    <tspan x="278.16" y="313.798">VERIFICATION</tspan>
  </text>
  <g>
    <rect style="fill: #ffffff" x="217.82" y="227.392" width="121.2" height="38.3444" rx="10" ry="10"/>
    <rect style="fill: none; fill-opacity:0; stroke-width: 2; stroke: #000000" x="217.82" y="227.392" width="121.2" height="38.3444" rx="10" ry="10"/>
    <text font-size="7.33778" style="fill: #000000;text-anchor:middle;font-family:sans-serif;font-style:normal;font-weight:normal" x="278.42" y="244.742">
      <tspan x="278.42" y="244.742"></tspan>
    </text>
    <text font-size="7.33778" style="fill: #000000;text-anchor:start;font-family:sans-serif;font-style:normal;font-weight:normal" x="227.82" y="253.914">do/ write paramerts in memory</text>
    <line style="fill: none; fill-opacity:0; stroke-width: 2; stroke: #000000" x1="217.82" y1="246.564" x2="339.02" y2="246.564"/>
  </g>
  <text font-size="7.33778" style="fill: #000000;text-anchor:middle;font-family:sans-serif;font-style:normal;font-weight:normal" x="278.42" y="234.742">
    <tspan x="278.42" y="234.742">SET_TS</tspan>
  </text>
  <g>
    <rect style="fill: #ffffff" x="238.42" y="150" width="80" height="29.1722" rx="10" ry="10"/>
    <rect style="fill: none; fill-opacity:0; stroke-width: 2; stroke: #000000" x="238.42" y="150" width="80" height="29.1722" rx="10" ry="10"/>
    <text font-size="7.33778" style="fill: #000000;text-anchor:middle;font-family:sans-serif;font-style:normal;font-weight:normal" x="278.42" y="167.35">
      <tspan x="278.42" y="167.35"></tspan>
    </text>
  </g>
  <text font-size="7.33778" style="fill: #000000;text-anchor:middle;font-family:sans-serif;font-style:normal;font-weight:normal" x="278.42" y="157.35">
    <tspan x="278.42" y="157.35">NEXT_PORT</tspan>
  </text>
  <g>
    <rect style="fill: #ffffff" x="102.503" y="150" width="80" height="29.1722" rx="10" ry="10"/>
    <rect style="fill: none; fill-opacity:0; stroke-width: 2; stroke: #000000" x="102.503" y="150" width="80" height="29.1722" rx="10" ry="10"/>
    <text font-size="7.33778" style="fill: #000000;text-anchor:middle;font-family:sans-serif;font-style:normal;font-weight:normal" x="142.503" y="167.35">
      <tspan x="142.503" y="167.35"></tspan>
    </text>
  </g>
  <text font-size="7.33778" style="fill: #000000;text-anchor:middle;font-family:sans-serif;font-style:normal;font-weight:normal" x="142.503" y="157.35">
    <tspan x="142.503" y="157.35">HALT_PROC</tspan>
  </text>
  <g>
    <polyline style="fill: none; fill-opacity:0; stroke-width: 2; stroke: #000000" points="66.771,50.5382 80,50.5382 80,50.1836 97.9445,50.1836 "/>
    <polyline style="fill: none; fill-opacity:0; stroke-width: 2; stroke: #000000" points="90.1805,55.1836 100.181,50.1836 90.1805,45.1836 "/>
  </g>
  <g>
    <polyline style="fill: none; fill-opacity:0; stroke-width: 2; stroke: #000000" points="182.417,50.1836 240,50.1836 240,50 443.25,50 443.25,60.9319 "/>
    <polyline style="fill: none; fill-opacity:0; stroke-width: 2; stroke: #000000" points="438.25,53.1679 443.25,63.1679 448.25,53.1679 "/>
    <text font-size="12.7998" style="fill: #000000;text-anchor:middle;font-family:sans-serif;font-style:normal;font-weight:normal" x="296" y="44">Start Processing</text>
  </g>
  <g>
    <polyline style="fill: none; fill-opacity:0; stroke-width: 2; stroke: #000000" points="486.5,65.404 520,65.404 520,65.4096 555.124,65.4096 "/>
    <polyline style="fill: none; fill-opacity:0; stroke-width: 2; stroke: #000000" points="547.36,70.4096 557.36,65.4096 547.36,60.4096 "/>
  </g>
  <g>
    <polyline style="fill: none; fill-opacity:0; stroke-width: 2; stroke: #000000" points="559.596,103.754 544,103.754 544,103.748 490.972,103.748 "/>
    <polyline style="fill: none; fill-opacity:0; stroke-width: 2; stroke: #000000" points="498.736,98.7484 488.736,103.748 498.736,108.748 "/>
  </g>
  <g>
    <polyline style="fill: none; fill-opacity:0; stroke-width: 2; stroke: #000000" points="568.952,164.586 558.952,164.586 490,164.586 484.472,164.586 "/>
    <polyline style="fill: none; fill-opacity:0; stroke-width: 2; stroke: #000000" points="492.236,159.586 482.236,164.586 492.236,169.586 "/>
    <text font-size="12.7998" style="fill: #000000;text-anchor:middle;font-family:sans-serif;font-style:normal;font-weight:normal" x="527.864" y="160">DT_STATE3</text>
  </g>
  <g>
    <polyline style="fill: none; fill-opacity:0; stroke-width: 2; stroke: #000000" points="608.952,179.172 608.952,189.172 608.952,222.016 608.952,227.544 "/>
    <polyline style="fill: none; fill-opacity:0; stroke-width: 2; stroke: #000000" points="603.952,219.78 608.952,229.78 613.952,219.78 "/>
    <text font-size="12.7998" style="fill: #000000;text-anchor:middle;font-family:sans-serif;font-style:normal;font-weight:normal" x="690" y="208.738">DT_STATE1 or DT_STATE2</text>
  </g>
  <g>
    <polyline style="fill: none; fill-opacity:0; stroke-width: 2; stroke: #000000" points="608.952,261.188 608.952,290.624 608.952,290.624 608.952,306.566 "/>
    <polyline style="fill: none; fill-opacity:0; stroke-width: 2; stroke: #000000" points="603.952,298.802 608.952,308.802 613.952,298.802 "/>
    <text font-size="12.7998" style="fill: #000000;text-anchor:middle;font-family:sans-serif;font-style:normal;font-weight:normal" x="688" y="294.5">counter of samples == 80</text>
  </g>
  <g>
    <polyline style="fill: none; fill-opacity:0; stroke-width: 2; stroke: #000000" points="568.952,246.602 449.266,246.602 449.266,246.564 343.492,246.564 "/>
    <polyline style="fill: none; fill-opacity:0; stroke-width: 2; stroke: #000000" points="351.256,241.564 341.256,246.564 351.256,251.564 "/>
    <text font-size="12.7998" style="fill: #000000;text-anchor:middle;font-family:sans-serif;font-style:normal;font-weight:normal" x="456" y="241.458">counter of samples &lt; 80</text>
  </g>
  <g>
    <polyline style="fill: none; fill-opacity:0; stroke-width: 2; stroke: #000000" points="568.952,179.172 568.952,210 339.02,210 339.02,222.92 "/>
    <polyline style="fill: none; fill-opacity:0; stroke-width: 2; stroke: #000000" points="334.02,215.156 339.02,225.156 344.02,215.156 "/>
    <text font-size="12.7998" style="fill: #000000;text-anchor:middle;font-family:sans-serif;font-style:normal;font-weight:normal" x="439.51" y="205.414">DT_STATE0</text>
  </g>
  <g>
    <polyline style="fill: none; fill-opacity:0; stroke-width: 2; stroke: #000000" points="568.952,325.624 558.952,325.624 510.18,325.624 504.652,325.624 "/>
    <polyline style="fill: none; fill-opacity:0; stroke-width: 2; stroke: #000000" points="512.416,320.624 502.416,325.624 512.416,330.624 "/>
  </g>
  <g>
    <polyline style="fill: none; fill-opacity:0; stroke-width: 2; stroke: #000000" points="278.161,306.448 278.161,286.092 278.42,286.092 278.42,270.209 "/>
    <polyline style="fill: none; fill-opacity:0; stroke-width: 2; stroke: #000000" points="283.42,277.973 278.42,267.973 273.42,277.973 "/>
  </g>
  <g>
    <polyline style="fill: none; fill-opacity:0; stroke-width: 2; stroke: #000000" points="278.42,227.392 278.42,217.392 278.42,189.172 278.42,183.644 "/>
    <polyline style="fill: none; fill-opacity:0; stroke-width: 2; stroke: #000000" points="283.42,191.408 278.42,181.408 273.42,191.408 "/>
  </g>
  <g>
    <polyline style="fill: none; fill-opacity:0; stroke-width: 2; stroke: #000000" points="142.503,150 142.503,109.678 142.417,109.678 142.417,73.828 "/>
    <polyline style="fill: none; fill-opacity:0; stroke-width: 2; stroke: #000000" points="147.417,81.5919 142.417,71.5919 137.417,81.5919 "/>
  </g>
  <g>
    <polyline style="fill: none; fill-opacity:0; stroke-width: 2; stroke: #000000" points="400,164.586 390,164.586 328.42,164.586 322.892,164.586 "/>
    <polyline style="fill: none; fill-opacity:0; stroke-width: 2; stroke: #000000" points="330.656,159.586 320.656,164.586 330.656,169.586 "/>
  </g>
  <g>
    <polyline style="fill: none; fill-opacity:0; stroke-width: 2; stroke: #000000" points="608.822,103.754 608.822,126.373 608.952,126.373 608.952,144.553 "/>
    <polyline style="fill: none; fill-opacity:0; stroke-width: 2; stroke: #000000" points="603.952,136.789 608.952,146.789 613.952,136.789 "/>
    <text font-size="12.7998" style="fill: #000000;text-anchor:middle;font-family:sans-serif;font-style:normal;font-weight:normal" x="671.94" y="128">read all parameters</text>
  </g>
  <g>
    <polyline style="fill: none; fill-opacity:0; stroke-width: 2; stroke: #000000" points="420.18,325.624 383.862,325.624 383.862,325.62 352.017,325.62 "/>
    <polyline style="fill: none; fill-opacity:0; stroke-width: 2; stroke: #000000" points="359.781,320.62 349.781,325.62 359.781,330.62 "/>
  </g>
  <g>
    <polygon style="fill: #ffffff" points="278.5,76 351.5,101.053 278.5,126.107 205.5,101.053 "/>
    <polygon style="fill: none; fill-opacity:0; stroke-width: 2; stroke: #000000" points="278.5,76 351.5,101.053 278.5,126.107 205.5,101.053 "/>
    <text font-size="12.8" style="fill: #000000;text-anchor:middle;font-family:sans-serif;font-style:normal;font-weight:normal" x="278.5" y="105.853">
      <tspan x="278.5" y="105.853"></tspan>
    </text>
  </g>
  <text font-size="12.8" style="fill: #000000;text-anchor:middle;font-family:sans-serif;font-style:normal;font-weight:normal" x="278.5" y="106.128">
    <tspan x="278.5" y="106.128">process all ports?</tspan>
  </text>
  <g>
    <polyline style="fill: none; fill-opacity:0; stroke-width: 2; stroke: #000000" points="278.42,150 278.42,144 278.5,144 278.5,130.579 "/>
    <polyline style="fill: none; fill-opacity:0; stroke-width: 2; stroke: #000000" points="283.5,138.343 278.5,128.343 273.5,138.343 "/>
  </g>
  <g>
    <polyline style="fill: none; fill-opacity:0; stroke-width: 2; stroke: #000000" points="351.5,101.053 384,101.053 384,84.5762 395.528,84.5762 "/>
    <polyline style="fill: none; fill-opacity:0; stroke-width: 2; stroke: #000000" points="387.764,89.5762 397.764,84.5762 387.764,79.5762 "/>
  </g>
  <polyline style="fill: none; fill-opacity:0; stroke-width: 2; stroke: #000000" points="205.5,101.053 180,101.053 180,134 210,134 "/>
  <g>
    <polyline style="fill: none; fill-opacity:0; stroke-width: 2; stroke: #000000" points="209,134 209,164.586 186.975,164.586 "/>
    <polyline style="fill: none; fill-opacity:0; stroke-width: 2; stroke: #000000" points="194.739,159.586 184.739,164.586 194.739,169.586 "/>
  </g>
  <text font-size="12.8" style="fill: #000000;text-anchor:start;font-family:sans-serif;font-style:normal;font-weight:normal" x="358" y="96">
    <tspan x="358" y="96">no</tspan>
  </text>
  <text font-size="12.8" style="fill: #000000;text-anchor:start;font-family:sans-serif;font-style:normal;font-weight:normal" x="184" y="96">
    <tspan x="184" y="96">yes</tspan>
  </text>
</svg>
